<svg version="1.1" xmlns="http://www.w3.org/2000/svg" width="200" height="200">
<path d="M0 0 C66 0 132 0 200 0 C200 66 200 132 200 200 C134 200 68 200 0 200 C0 134 0 68 0 0 Z " fill="#010101" transform="translate(0,0)"/>
<path d="M0 0 C9.57 0 19.14 0 29 0 C29 9.57 29 19.14 29 29 C26.36 29 23.72 29 21 29 C21 24.38 21 19.76 21 15 C15.65788401 19.59742233 10.54255728 24.31579354 5.57421875 29.31225586 C4.88054703 30.00578156 4.18687531 30.69930725 3.47218323 31.41384888 C1.20824012 33.67848174 -1.05215259 35.94662249 -3.3125 38.21484375 C-4.8926844 39.79689566 -6.47309153 41.37872512 -8.05371094 42.96034241 C-12.19210237 47.10253278 -16.32748054 51.24771857 -20.46221924 55.39355469 C-24.69043019 59.63203643 -28.92151052 63.86765171 -33.15234375 68.10351562 C-41.43769225 76.39955512 -49.71985738 84.69876482 -58 93 C-51.07 93.495 -51.07 93.495 -44 94 C-44 96.64 -44 99.28 -44 102 C-53.57 102 -63.14 102 -73 102 C-73 92.43 -73 82.86 -73 73 C-70.36 73 -67.72 73 -65 73 C-64.67 77.29 -64.34 81.58 -64 86 C-63.36630493 85.36408432 -62.73260986 84.72816864 -62.07971191 84.07298279 C-56.08055958 78.05371733 -50.07894746 72.0369174 -44.07462311 66.02281094 C-40.98851048 62.93150004 -37.90332652 59.83927448 -34.8203125 56.74487305 C-31.83993119 53.75355357 -28.8570486 50.76474879 -25.8724823 47.77760506 C-24.73943848 46.64272656 -23.6072688 45.50697458 -22.47602844 44.37029839 C-16.99575625 38.864764 -11.52653063 33.40069486 -5.58508301 28.38502502 C-3.17337127 26.27770251 -1.10029986 23.9125066 1 21.5 C5.07218378 16.9298247 9.30023939 12.91646717 14 9 C7.07 8.505 7.07 8.505 0 8 C0 5.36 0 2.72 0 0 Z " fill="#FBFBFB" transform="translate(122,49)"/>
<path d="M0 0 C4.80428833 4.06615329 9.50528833 8.22549756 14.125 12.5 C14.71925781 13.04269531 15.31351563 13.58539063 15.92578125 14.14453125 C19.60976957 17.55201714 22.86886267 21.07721663 26 25 C26.33 20.38 26.66 15.76 27 11 C29.64 11 32.28 11 35 11 C35 20.57 35 30.14 35 40 C25.43 40 15.86 40 6 40 C6 37.36 6 34.72 6 32 C10.62 31.67 15.24 31.34 20 31 C18.948125 29.948125 17.89625 28.89625 16.8125 27.8125 C9.54166667 20.54166667 2.27083333 13.27083333 -5 6 C-3.35 4.02 -1.7 2.04 0 0 Z " fill="#FDFDFD" transform="translate(116,111)"/>
<path d="M0 0 C9.57 0 19.14 0 29 0 C29 2.64 29 5.28 29 8 C24.38 8.33 19.76 8.66 15 9 C16.216875 10.216875 17.43375 11.43375 18.6875 12.6875 C25.79166667 19.79166667 32.89583333 26.89583333 40 34 C37.525 36.97 37.525 36.97 35 40 C30.3553305 36.11143949 25.84519751 32.08667667 21.375 28 C20.82497314 27.50209961 20.27494629 27.00419922 19.70825195 26.49121094 C17.01754978 24.01795151 14.53635864 21.52355739 12.2265625 18.6875 C10.28250032 15.9731489 10.28250032 15.9731489 8 15 C8 19.62 8 24.24 8 29 C5.36 29 2.72 29 0 29 C0 19.43 0 9.86 0 0 Z " fill="#FCFCFC" transform="translate(49,49)"/>
</svg>